<?xml version="1.0" encoding="UTF-8" standalone="no"?>
<svg
   viewBox="0 0 511.99811 512.05463"
   version="1.1"
   id="svg7616"
   width="511.99811"
   height="512.05463"
   xmlns="http://www.w3.org/2000/svg"
   xmlns:svg="http://www.w3.org/2000/svg">
  <defs
     id="defs7620" />
  <path
     fill="#7ac0af"
     d="m 500.29884,443.69966 -119.7,-119.7 c 27.22,-40.41 40.65,-90.9 33.46,-144.7 -12.26,-91.510004 -87.26,-165.980004 -178.86,-177.5770043 C 99.008844,-15.510344 -15.511156,99.009656 1.7228443,235.19966 c 11.5999997,91.64 86.0799997,166.7 177.5999957,178.9 53.8,7.189 104.3,-6.236 144.7,-33.46 l 119.7,119.7 c 15.62,15.62 40.95,15.62 56.57,0 15.606,-15.64 15.606,-41.04 0.006,-56.64 z m -421.199996,-235.7 c 0,-70.58 57.419996,-128.000004 127.999996,-128.000004 70.58,0 128,57.420004 128,128.000004 0,70.58 -57.42,128 -128,128 -70.58,0 -127.999996,-57.4 -127.999996,-128 z"
     id="path7614"
     style="fill:#d55e8a;fill-opacity:1" />
</svg>
